<svg width="20" height="20" fill="none" xmlns="http://www.w3.org/2000/svg"><path d="M13.54 6.46A5.04 5.04 0 0 0 10 4.97 5.04 5.04 0 0 0 4.97 10a5.04 5.04 0 0 0 8.57 3.54 4.93 4.93 0 0 0 0-7.09Zm-.95 6.13A3.66 3.66 0 0 1 10 13.65c-1 0-1.93-.4-2.6-1.06A3.66 3.66 0 0 1 6.36 10c0-1 .4-1.93 1.06-2.6A3.66 3.66 0 0 1 10 6.36c1 0 1.93.4 2.6 1.06A3.66 3.66 0 0 1 13.64 10c0 1-.4 1.93-1.06 2.6ZM19.31 9.31h-2.03a.7.7 0 0 0-.7.69c0 .37.32.69.7.69h2.03A.7.7 0 0 0 20 10a.7.7 0 0 0-.69-.69ZM10 16.59a.7.7 0 0 0-.69.69v2.03c0 .37.32.69.69.69a.7.7 0 0 0 .69-.69v-2.03a.7.7 0 0 0-.69-.7ZM17.06 16.11l-1.45-1.45c-.24-.27-.69-.27-.95 0a.67.67 0 0 0 0 .95l1.45 1.45c.27.27.69.27.95 0a.67.67 0 0 0 0-.95ZM10 0a.7.7 0 0 0-.69.69v2.03c0 .38.32.7.69.7a.7.7 0 0 0 .69-.7V.7A.7.7 0 0 0 10 0ZM17.09 2.94a.67.67 0 0 0-.95 0l-1.46 1.45a.67.67 0 0 0 0 .95c.24.27.69.27.95 0L17.1 3.9a.67.67 0 0 0 0-.95ZM2.72 9.31H.7A.7.7 0 0 0 0 10c0 .37.3.69.69.69h2.03a.7.7 0 0 0 .7-.69.7.7 0 0 0-.7-.69ZM5.32 14.66c-.24-.27-.69-.27-.95 0L2.9 16.1a.67.67 0 0 0 0 .95c.26.27.69.27.95 0l1.46-1.45a.67.67 0 0 0 0-.95ZM5.32 4.4 3.86 2.93a.67.67 0 0 0-.95 0 .67.67 0 0 0 0 .95l1.46 1.45c.26.27.68.27.95 0a.67.67 0 0 0 0-.95Z" fill="#fff"/></svg>
