<svg width="12" height="12" fill="none" xmlns="http://www.w3.org/2000/svg"><g clip-path="url(#a)"><path d="M11.2 6.75a.38.38 0 0 0-.32.07A4.09 4.09 0 0 1 4.13 3.7c0-.48.08-.94.22-1.36.15-.44.38-.85.67-1.2a.36.36 0 0 0-.06-.5.38.38 0 0 0-.32-.07 5.55 5.55 0 0 0 1.42 10.9 5.53 5.53 0 0 0 5.37-4.26c.07-.2-.04-.4-.23-.45ZM9.06 9.68a4.75 4.75 0 0 1-6.35-.38 4.8 4.8 0 0 1 1.18-7.67 4.84 4.84 0 0 0 6.01 6.6c.18-.06.36-.13.53-.22-.34.65-.8 1.22-1.37 1.67Z" fill="#fff"/></g><defs><clipPath id="a"><path fill="#fff" d="M0 0h12v12H0z"/></clipPath></defs></svg>
