<svg width="25" height="25" fill="none" xmlns="http://www.w3.org/2000/svg"><g clip-path="url(#clip0_809_714)"><path fill="#fff" d="M0 0h25v25H0z"/><path d="m23.42 24.19-4.05-9.4-3.81-8.88a.48.48 0 0 0-.88 0l-3.4 7.9-1.34 3.1L7 10.17a.48.48 0 0 0-.88 0l-2.75 6.36-3.34 7.66a.48.48 0 0 0 .44.67h22.5a.48.48 0 0 0 .44-.66Zm-8.3-16.9 3.1 7.2h-1.1l-1.96-2.17a.48.48 0 0 0-.76.07l-.73 1.13h-1.23L15.1 7.3Zm-8.55 4.24 2.45 5.66H7.68a.48.48 0 0 0-.4.22l-.48.76-1.23-1.74a.48.48 0 0 0-.39-.2h-.63l2.02-4.7ZM1.23 23.9l2.9-6.72h.8l1.5 2.12c.08.13.23.2.38.2.16 0 .3-.08.4-.21l.73-1.14h1.49l2.48 5.73-10.68.02Zm11.73 0-2.5-5.78 1.57-3.64h1.9c.17 0 .32-.09.4-.22l.54-.82 1.69 1.87c.09.1.21.15.35.15h1.7l3.64 8.45-9.3-.01ZM7.61 2.08a2.25 2.25 0 0 0-4.35.8v.26a2.25 2.25 0 0 0 .9 4.29l.03.02h3.34a2.68 2.68 0 1 0 .08-5.37Zm-.05 4.43H4.22a1.3 1.3 0 1 1-.27-2.59.48.48 0 0 0 .36-.62 1.3 1.3 0 1 1 2.5-.64c.05.25.28.42.53.39h.22a1.73 1.73 0 0 1 0 3.46ZM23.7 2.64v-.25a2.25 2.25 0 0 0-4.35-.82 2.68 2.68 0 0 0 .1 5.36h3.34a2.25 2.25 0 0 0 .9-4.3Zm.36 2.3a1.3 1.3 0 0 1-1.26 1.03h-3.33a1.73 1.73 0 0 1 0-3.45h.21c.24.02.46-.14.52-.38a1.3 1.3 0 1 1 2.5.65.48.48 0 0 0 .36.62c.7.15 1.15.84 1 1.54Z" fill="#2D383F"/></g></svg>
