<svg width="25" height="25" fill="none" xmlns="http://www.w3.org/2000/svg"><g clip-path="url(#clip0_809_725)"><path fill="#fff" d="M0 0h25v25H0z"/><path d="m24.6 18.08-4.92-5.61h2.38a.5.5 0 0 0 .4-.8L18.5 6.48h2a.5.5 0 0 0 .38-.84L16.07.17a.5.5 0 0 0-.75 0l-4.83 5.48a.5.5 0 0 0 .38.84h2.03l-1.21 1.58-3.25-3.7a.5.5 0 0 0-.75 0l-4.13 4.7a.5.5 0 0 0 .38.82h1.59l-3.3 4.32a.5.5 0 0 0 .4.8h1.85L.4 19.69a.5.5 0 0 0 .38.83h5.54v3.5c0 .54.44.98.97.98h1.53c.54 0 .98-.43.98-.97v-3.51h4.16v3.5c0 .54.44.98.97.98h1.53c.54 0 .97-.44.97-.97v-5.11h6.79a.5.5 0 0 0 .37-.84ZM8.8 24l-1.48.03-.03-3.51h1.5V24Zm5.16-4.48H1.88l4.1-4.68A.5.5 0 0 0 5.6 14H3.64l3.3-4.31a.5.5 0 0 0-.4-.8h-1.5l3-3.43 3.01 3.41-2.11 2.8a.5.5 0 0 0 .4.8h2.37l-4.9 5.62a.5.5 0 0 0 .37.83h6.78v.6Zm2.47 4.47-1.47.04-.03-5.11h1.5v5.07Zm.03-6.08H8.28l4.9-5.61a.5.5 0 0 0-.37-.83h-2.46l3.96-5.19a.5.5 0 0 0-.4-.8H12l3.71-4.22 3.7 4.22h-1.93a.5.5 0 0 0-.4.81l3.94 5.18h-2.44a.5.5 0 0 0-.38.83l4.9 5.61h-6.64Z" fill="#2D383F"/></g></svg>