<svg xmlns="http://www.w3.org/2000/svg" fill="none" viewBox="0 0 32 32"><g clip-path="url(#clip0_208_1591)"><path fill="#fff" d="M0 0h32v32h-32z"/><path fill="#2D383F" d="m11.7 20.76 2.81-2.96 3.2 2.96h5.46l-8.7-8.57-8.62 8.57z"/><path fill="#2D383F" d="m19.73 7.01-4.13 4.23 2.73 2.82 1.4-1.4 7.68 7.67a12.3 12.3 0 0 1-11.53 8.04 12.38 12.38 0 0 1 .04-24.74c6.02 0 11.07 4.4 12.09 10.15l3.71 3.95q.1-.87.1-1.73a15.93 15.93 0 0 0-15.9-16 15.7 15.7 0 0 0-11.26 4.69 16 16 0 0 0-4.66 11.31c0 4.3 1.65 8.28 4.66 11.31a15.8 15.8 0 0 0 11.25 4.69 15.8 15.8 0 0 0 11.26-4.69 16 16 0 0 0 3.92-6.52q.2-.65.35-1.3l-3.22-3.42z"/></g><defs><clipPath id="clip0_208_1591"><path fill="#fff" d="M0 0h32v32h-32z"/></clipPath></defs></svg>